<?xml version="1.0" standalone="no"?>
<!DOCTYPE svg PUBLIC "-//W3C//DTD SVG 20010904//EN"
 "http://www.w3.org/TR/2001/REC-SVG-20010904/DTD/svg10.dtd">
<svg version="1.0" xmlns="http://www.w3.org/2000/svg"
 width="1037.000000pt" height="1037.000000pt" viewBox="0 0 1037.000000 1037.000000"
 preserveAspectRatio="xMidYMid meet">
<metadata>
Created by potrace 1.11, written by Peter Selinger 2001-2013
</metadata>
<g transform="translate(0.000000,1037.000000) scale(0.100000,-0.100000)"
fill="#000000" stroke="none">
<path d="M5099 10366 c-2 -2 -24 -7 -49 -11 -248 -37 -485 -230 -589 -478 -16
-40 -32 -84 -35 -97 -3 -14 -8 -36 -11 -50 -11 -42 -14 -233 -4 -286 21 -113
68 -229 132 -324 47 -69 166 -181 235 -220 l61 -35 1 -166 0 -166 -1437 0
c-791 0 -1456 -3 -1477 -7 -105 -20 -210 -106 -246 -203 -20 -53 -20 -71 -17
-2301 l2 -2247 24 -45 c32 -62 109 -132 167 -153 46 -16 202 -17 2667 -17
l2617 0 -2 -1258 -3 -1257 -1950 0 -1950 0 -5 370 c-6 424 -5 419 -98 511 -61
60 -126 84 -216 80 -111 -5 -213 -73 -260 -175 -20 -45 -21 -60 -24 -585 -2
-471 -1 -545 13 -587 31 -93 113 -176 199 -201 29 -8 201 -12 586 -12 l545 -1
5 -190 c3 -105 9 -197 13 -206 4 -8 21 -23 36 -32 26 -15 69 -17 400 -17 245
0 378 4 394 11 50 23 57 52 57 251 l0 183 310 0 310 0 0 -183 c0 -199 6 -228
55 -250 35 -16 753 -17 788 -1 47 21 52 42 57 244 l5 190 555 1 c553 0 555 0
601 23 74 35 123 84 153 150 l27 60 -1 1615 c0 1804 5 1669 -72 1760 -22 26
-63 59 -92 74 l-51 27 -2632 3 -2633 2 0 1885 c0 1501 3 1885 13 1886 16 1
5773 1 5810 0 l27 -1 0 -1423 c0 -1378 1 -1424 19 -1477 71 -202 335 -263 487
-113 25 24 56 66 67 91 l22 47 3 1605 c2 1762 6 1660 -58 1747 -36 49 -107 99
-164 114 -30 9 -452 12 -1493 12 l-1453 0 0 163 c0 159 1 164 23 175 108 57
231 169 294 266 150 235 173 523 60 765 -45 99 -86 157 -163 234 -111 110
-220 171 -384 214 -44 12 -262 24 -271 16z m228 -530 c55 -27 116 -91 140
-146 8 -19 17 -67 19 -106 3 -61 -1 -79 -25 -131 -30 -63 -90 -123 -151 -150
-22 -10 -65 -16 -115 -17 -66 -1 -88 3 -125 23 -61 32 -107 76 -138 136 -36
68 -37 186 -2 258 28 59 103 126 167 150 67 24 164 17 230 -17z"/>
<path d="M3474 6749 c-11 -6 -28 -23 -37 -39 -15 -25 -17 -66 -17 -325 0 -322
3 -339 57 -364 33 -15 1013 -15 1046 0 54 25 57 42 57 364 0 321 -3 339 -55
363 -34 15 -1019 16 -1051 1z"/>
<path d="M5851 6746 c-48 -27 -50 -41 -51 -358 0 -193 4 -305 11 -321 26 -57
22 -57 569 -57 547 0 543 0 569 57 7 16 11 128 11 319 0 320 -3 338 -55 362
-40 18 -1021 16 -1054 -2z"/>
</g>
</svg>
