<svg xmlns="http://www.w3.org/2000/svg" width="705" height="1037" viewBox="0 0 705 1037">
  <title>
    Stoplight Logo
  </title>
  <g fill="none" fill-rule="evenodd" transform="translate(0 25)">
    <rect width="60" height="370" x="645" y="159" fill="#FFF" rx="30"/>
    <rect width="60" height="370" x="548" y="596" fill="#FFF" rx="30"/>
    <rect width="60" height="156" x="97" y="811" fill="#FFF" rx="30"/>
    <rect width="60" height="496" y="160" fill="#FFF" rx="30"/>
    <rect width="60" height="701.5" x="323" y="-162" fill="#FFF" rx="30" transform="rotate(90 353 188.75)"/>
    <rect width="60" height="608" x="274" y="322" fill="#FFF" rx="30" transform="rotate(90 304 626)"/>
    <rect width="60" height="511" x="323" y="682" fill="#FFF" rx="30" transform="rotate(90 353 937.5)"/>
    <rect width="116" height="75" x="176" y="336" fill="#FFF" rx="10"/>
    <rect width="90" height="75" x="232" y="937" fill="#FFF" rx="10"/>
    <rect width="70" height="100" x="318" y="84" fill="#FFF" rx="10"/>
    <rect width="90" height="75" x="384" y="937" fill="#FFF" rx="10"/>
    <rect width="116" height="75" x="414" y="336" fill="#FFF" rx="10"/>
    <circle cx="353.5" cy="54.5" r="54.5" stroke="#FFF" stroke-width="50"/>
  </g>
</svg>
