<svg viewBox="0 0 32 32" xmlns="http://www.w3.org/2000/svg" xmlns:xlink="http://www.w3.org/1999/xlink"><defs><path d="M7.627.154L.154 7.627a.53.53 0 000 .747l7.473 7.472a.526.526 0 00.747 0l7.472-7.472a.529.529 0 000-.747L8.374.154a.532.532 0 00-.747 0" id="a"/><path d="M7.627.154L.154 7.627a.53.53 0 000 .747l7.473 7.471a.524.524 0 00.747 0l7.472-7.471a.529.529 0 000-.747L8.374.154a.528.528 0 00-.747 0zM2.609 8L8 2.609 13.391 8 8 13.391 2.609 8z" id="c"/></defs><g fill="none" fill-rule="evenodd"><path d="M16.037 0c-1.913 0-3.826.165-5.74.489C5.103 1.371 1.773 4.287.69 9.524c-.86 4.151-.94 8.33-.107 12.466 1.025 5.316 4.255 8.557 9.604 9.503 1.925.34 3.85.507 5.778.507 1.912 0 3.826-.165 5.739-.489 5.176-.878 8.593-4.088 9.687-9.289.817-4.105.805-8.257.013-12.366-1.024-5.316-4.24-8.403-9.59-9.349A33.136 33.136 0 0016.037 0" fill="#EEF" fill-rule="nonzero"/><g transform="translate(8 11)"><mask id="b" fill="#fff"><use xlink:href="#a"/></mask><path d="M7.627.154L.154 7.627a.53.53 0 000 .747l7.473 7.472a.526.526 0 00.747 0l7.472-7.472a.529.529 0 000-.747L8.374.154a.532.532 0 00-.747 0" fill="#4F0599" mask="url(#b)"/></g><g transform="translate(8 5)"><mask id="d" fill="#fff"><use xlink:href="#c"/></mask><path d="M7.627.154L.154 7.627a.53.53 0 000 .747l7.473 7.471a.524.524 0 00.747 0l7.472-7.471a.529.529 0 000-.747L8.374.154a.528.528 0 00-.747 0zM2.609 8L8 2.609 13.391 8 8 13.391 2.609 8z" fill="#AE5CFF" mask="url(#d)"/></g></g></svg>