<svg xmlns="http://www.w3.org/2000/svg" viewBox="0 0 104 131"><g fill="none" fill-rule="evenodd"><path d="M57.462 15.537c27.994 2.352 47.312 26.867 46.425 54.944-1.485 47.002-26.768 51.13-54.94 46.421-30.902-5.167-56.383-25.94-46.425-54.94 9.107-26.569 26.95-48.778 54.94-46.425zM10.606 112.03c2.083.177 3.522 1.995 3.456 4.091-.107 3.496-1.994 3.808-4.094 3.46-2.3-.386-4.2-1.935-3.459-4.094.685-1.977 2.01-3.632 4.097-3.456zM85.812 7.755a2.459 2.459 0 012.203 2.608c-.07 2.233-1.27 2.43-2.609 2.203-1.468-.242-2.678-1.229-2.206-2.608.435-1.26 1.283-2.316 2.612-2.203z" fill="#C8BDFF" fill-rule="nonzero"/><path d="M83.446 72.185c-.153 1.074-.492 2.104-.665 3.17a7.493 7.493 0 00.127 3.213c.598 2.273 2.146 4.144 3.987 5.556.531.408 1.09.784 1.595 1.22l8.835-8.45a1.884 1.884 0 00.06-2.659l-8.673-9.06a1.884 1.884 0 00-2.658-.06l-3.027 2.897a8.45 8.45 0 01.419 4.173z" fill="#51069D" fill-rule="nonzero"/><path d="M71.388 81.738l8.689 9.044a1.884 1.884 0 002.658.06l5.745-5.499c-.505-.435-1.064-.81-1.595-1.22-1.83-1.411-3.38-3.282-3.987-5.555a7.493 7.493 0 01-.127-3.213c.19-1.066.529-2.096.665-3.17a8.45 8.45 0 00-.445-4.173L71.438 79.08a1.884 1.884 0 00-.05 2.658z" fill="#A990FC" fill-rule="nonzero"/><path d="M91.766 74.318l1.083-1.036a.445.445 0 000-.625l-.664-.691-1.403 1.33.984 1.022zm-.276-3.093l-.664-.694a.449.449 0 00-.625 0l-1.083 1.036.967.997 1.405-1.339z" stroke="#FFF" stroke-width=".66" fill="#A990FC" fill-rule="nonzero"/><path stroke="#FFF" stroke-width=".66" fill="#A990FC" fill-rule="nonzero" d="M90.089 72.573l1.402-1.341.71.741-1.402 1.342zm-2.653 2.539l1.402-1.342.71.742-1.403 1.342z"/><path d="M88.14 75.85l.665.691a.439.439 0 00.622 0l1.083-1.036-.967-.997-1.402 1.342zm-.272-3.083L86.785 73.8a.445.445 0 00-.016.625l.664.69 1.399-1.328-.964-1.02z" stroke="#FFF" stroke-width=".66" fill="#A990FC" fill-rule="nonzero"/><path stroke="#FFF" stroke-width=".66" fill="#A990FC" fill-rule="nonzero" d="M91.766 74.318l-.967-1.01-.711-.744-.967-1.01-1.256 1.203.967 1.01.711.74.967 1.011z"/><path d="M46.763 116.214c1.256-.096 2.293-.565 3.373-1.123l-1.24-8.765-7.874-1.708c1.429 1.994 2.326 4.539 3.366 6.645.797 1.648 1.59 3.299 2.375 4.951z" fill="#A990FC" fill-rule="nonzero"/><path d="M48.843 120.544a.81.81 0 01-.478 1.18 19.132 19.132 0 00-7.26 3.425 40.3 40.3 0 00-1.485 1.226c2.658-.163 11.649-3.38 11.649-3.38l-1.116-7.904c-1.08.558-2.117 1.027-3.373 1.123l2.063 4.33z" fill="#51069D" fill-rule="nonzero"/><path d="M43.527 115.63a7.48 7.48 0 002.788.61c.15 0 .296 0 .442-.02-.789-1.654-1.58-3.306-2.376-4.957-1.023-2.113-1.937-4.651-3.366-6.645l-4.266-.95s3.455 6.532 6.778 11.961z" fill="#672CBC" fill-rule="nonzero"/><path d="M48.348 121.723a.81.81 0 00.479-1.18l-2.064-4.319c-.146 0-.292.02-.441.02a7.48 7.48 0 01-2.795-.615c1.123 1.831 2.24 3.536 3.203 4.822 0 0-8.44 4.808-7.851 5.791.076.123.332.163.717.14.499-.42.997-.841 1.486-1.226a19.132 19.132 0 017.266-3.433z" fill="#350072" fill-rule="nonzero"/><path d="M44.55 81.03a7.253 7.253 0 01-3.24 7.26 1.223 1.223 0 01-1.81-.555c-.448.05-.899.07-1.349.057-1.076-.017-2.432.053-3.549-.302-.169.471-.405.94-.571 1.392-.601 1.661-1.223 3.213-.744 4.984.435 1.605 1.541 2.914 2.854 3.89.664.49 1.27 1.027 1.894 1.552a.528.528 0 01.392.17 25.6 25.6 0 003.598.19.402.402 0 00.03-.802.18.18 0 01.017-.036c.93-2.685 1.698-5.436 2.485-8.167.362-1.263.718-2.525 1.09-3.785.309-1.043.84-2.223.9-3.322.067-1.243-.927-1.98-1.996-2.526z" fill="#A990FC" fill-rule="nonzero"/><path d="M38.035 99.318c-.625-.525-1.24-1.063-1.894-1.551-1.33-.977-2.42-2.286-2.854-3.891-.479-1.781.143-3.343.744-4.984.166-.452.402-.92.571-1.392 1.117.355 2.473.285 3.55.302.45.012.9-.007 1.348-.057a1.223 1.223 0 001.81.555 7.253 7.253 0 003.24-7.26c-.465-.236-.943-.435-1.355-.621-1.857-.847-4.107-1.791-6.187-1.548-.166.02-.282.262-.096.355l.083.037a24.538 24.538 0 00-5.124 6.562c-1.16 2.09-2.93 5.104-2.595 7.589.332 2.326 2.775 3.987 4.762 4.878a15.666 15.666 0 004.389 1.196.528.528 0 00-.392-.17zm21.531-14.776a50.173 50.173 0 01-6.214 1.97c-2.07.524-4.183.866-6.313 1.02-.664.047-1.432.13-2.193.177a10.98 10.98 0 00-.668.914c2.416.7 4.027 3.322 3.968 6.363a47.67 47.67 0 009.45-.977c.442-.082.885-.169 1.328-.26a22.74 22.74 0 01.964-2.99c.964-2.475 2.392-5.057 2.808-7.742-.22.164-.453.312-.695.442-.789.41-1.602.772-2.435 1.083z" fill="#672CBC" fill-rule="nonzero"/><path d="M62.134 79.592c-.365.008-.73-.004-1.093-.034l-20.448 3.758a23.425 23.425 0 00-5.13 9.666c.176.096.356.183.538.262l.216.094.303.112c.222.084.445.157.664.223.834-3.352 3.592-5.629 6.43-5.177.187.03.372.072.554.127a10.98 10.98 0 01.668-.914c.761-.047 1.512-.13 2.193-.176a36.606 36.606 0 006.313-1.02 50.173 50.173 0 006.214-1.97 22.07 22.07 0 002.452-1.084 5.58 5.58 0 00.694-.442c.061-.396.1-.795.113-1.196.04-.8-.2-1.589-.68-2.23z" fill="#51069D" fill-rule="nonzero"/><path d="M59.679 86.327c-.245.021-.49.021-.735 0a1.389 1.389 0 00-.378-2.074c-1.682-.91-3.296-.442-4.652.808a1.538 1.538 0 00-.293.369c-1.777.309-3.535.717-5.316.996-1.711.28-3.738 0-5.343.585a.05.05 0 000 .093c1.3.997 3.386.917 4.961.997a35.177 35.177 0 005.293-.203 5.529 5.529 0 003.798 3.373c2.618.664 3.23-1.293 3.811-3.436.176-.708-.372-1.568-1.146-1.508zm6.954 1.833c2.276.493 4.562.599 6.848.735-.083-.963-.046-1.954-.116-2.96a.136.136 0 00-.023-.107.24.24 0 00-.386-.086 13.417 13.417 0 01-4.276-1.05 4.496 4.496 0 00-2.047 3.469z" fill="#51069D" fill-rule="nonzero"/><path d="M65.254 82.665c-1.13.086-2.136.332-2.99 1.103a5.98 5.98 0 00-1.588 2.519c0 .036-.02.07-.034.106l.665.226a54.686 54.686 0 004.745 1.402l.608.14a4.496 4.496 0 012.046-3.47 11.131 11.131 0 01-2.78-1.73c-.117-.1-.23-.203-.333-.306-.136 0-.24.003-.339.01z" fill="#A990FC" fill-rule="nonzero"/><path d="M66.61 88.965a5.931 5.931 0 001.369 3.608c2.014.238 4.052.164 6.044-.219a.399.399 0 00.282-.502.419.419 0 00-.053-.272 6.353 6.353 0 01-.77-2.685c-2.287-.136-4.573-.242-6.849-.734a6.39 6.39 0 00-.023.804z" fill="#350072" fill-rule="nonzero"/><path d="M61.47 79.246c-3.117-1.183-5.798 1.638-5.981 4.625-.243 3.831 3.153 5.765 6.253 7.068a22.672 22.672 0 006.24 1.634 5.931 5.931 0 01-1.369-3.608 6.39 6.39 0 01.023-.804l-.608-.14a57.59 57.59 0 01-4.744-1.402l-.665-.226c0-.036.023-.07.033-.106a5.98 5.98 0 011.589-2.519c.867-.784 1.874-1.017 2.99-1.103h.306c-1.276-1.22-2.353-2.771-4.067-3.419z" fill="#672CBC" fill-rule="nonzero"/><path d="M35.46 92.982zm.724 2.618l.176.067-.176-.067zm.033-2.262l.303.112-.303-.112zm22.724.412zM35.59 95.361l.172.073-.173-.073z"/><path d="M36.516 93.45zm-.518-.206l.216.094-.216-.094zm-.236 2.186zm-.728-.345z" fill="#51069D" fill-rule="nonzero"/><path d="M59.077 78.974zm0 0z" fill="#A990FC" fill-rule="nonzero"/><path d="M62.134 79.592a2.489 2.489 0 00-.17-.203l-.923.17c.364.03.728.04 1.093.033zM48.142 97.534l-.425-.04c-.894 2.675-3.04 4.526-5.376 4.602a10.566 10.566 0 004.446 5.386 10.3 10.3 0 003.88 1.356c.485.045.972.045 1.456 0a13.075 13.075 0 001.947-.608c3.07-1.236 4.363-3.45 4.482-6.702.057-1.575-.046-3.153 0-4.732a32.918 32.918 0 01-10.41.738z" fill="#672CBC" fill-rule="nonzero"/><path d="M48.146 94.986c.06-3.037-1.552-5.649-3.968-6.363a18.155 18.155 0 00-1.854 3.675 14.859 14.859 0 00-.465 8.286 12.5 12.5 0 00.482 1.512c2.326-.076 4.482-1.927 5.376-4.602l.425.04c3.486.313 6.999.069 10.407-.724 0-.226 0-.452.027-.681.05-.803.173-1.599.365-2.38a69.21 69.21 0 01-1.329.26 47.67 47.67 0 01-9.466.977z" fill="#51069D" fill-rule="nonzero"/><path d="M50.668 108.838a10.3 10.3 0 01-3.881-1.356 10.566 10.566 0 01-4.446-5.386 4.555 4.555 0 01-.874-.05c-2.635-.418-4.472-3.053-4.525-6.187l-.08-.026a14.76 14.76 0 01-.502-.166l-.176-.067a9.31 9.31 0 01-.422-.17l-.173-.072a12.236 12.236 0 01-.555-.273c-.033.213-.066.422-.093.638-.359 2.854.047 5.898 1.808 8.254 1.86 2.485 4.927 3.96 7.875 4.711 2.451.648 5.022.704 7.499.163-.485.04-.972.036-1.455-.013z" fill="#51069D" fill-rule="nonzero"/><path d="M35.59 95.361l.172.073c.14.06.28.116.422.17l.176.066c.193.066.386.133.582.193.053 3.133 1.89 5.768 4.525 6.187.29.044.582.06.874.05a12.5 12.5 0 01-.482-1.512 14.859 14.859 0 01.465-8.287 18.155 18.155 0 011.868-3.678 4.343 4.343 0 00-.555-.127c-2.838-.452-5.596 1.825-6.43 5.177a7.788 7.788 0 01-.664-.223l-.302-.112-.216-.094a6.702 6.702 0 01-.539-.262c-.173.689-.314 1.39-.425 2.103.16.097.342.186.528.276z" fill="#350072" fill-rule="nonzero"/><path d="M36.862 95.833l.08.026a12.664 12.664 0 00-.08-.027z" fill="#000" fill-rule="nonzero"/><path d="M37.194 93.673h-.003.003z"/><ellipse fill="#FFF" fill-rule="nonzero" transform="rotate(-80.96 42.543 95.271)" cx="42.543" cy="95.271" rx="5.632" ry="4.572"/><ellipse fill="#F93DD1" fill-rule="nonzero" transform="rotate(-80.96 42.543 95.271)" cx="42.543" cy="95.271" rx="4.529" ry="3.678"/><path d="M75.551 26.326c4.243-1.193 10.36-.731 12.25 6.791 1.892 7.523 4.776 38.337-28.136 49.405l-2.99-37.689 18.876-18.507z" fill="#A990FC" fill-rule="nonzero"/><path d="M76.585 64.972c-5.63 4.133-12.294 6.36-19.319 5.894a31.592 31.592 0 01-17.49-6.715 26.598 26.598 0 01-6.55-7.453c-1.9-3.306-2.657-6.977-3.159-10.729-1.794-13.603 2.565-28.784 15.105-35.921 5.648-3.21 12.377-4.267 18.637-2.38C69.833 9.48 74.87 13.65 78.69 18.539l.11.139a41.868 41.868 0 00-2.203-3.027A41.912 41.912 0 0064.52 5.376a41.683 41.683 0 10-25.711 77.661l21.524-2.99a41.776 41.776 0 0020.152-18.145c.123-.22.24-.442.36-.665a32.632 32.632 0 01-4.26 3.735z" fill="#350072" fill-rule="nonzero"/><path d="M76.501 58.19c-8.97 5.084-21.71 3.18-28.498-4.715-3.323-3.854-5.981-9.327-6.646-14.384-.707-5.206 1.266-10.679 3.655-15.247 2.167-4.174 5.416-8.141 9.73-10.208 4.312-2.066 9.509-2.166 14.03-.73 4.523 1.435 8.484 4.395 11.46 8.05a41.713 41.713 0 00-1.405-2.28l-.11-.139c-3.854-4.914-8.89-9.057-14.921-10.868-6.26-1.888-12.999-.83-18.637 2.379-12.534 7.137-16.893 22.318-15.099 35.921.509 3.738 1.26 7.423 3.167 10.73a26.598 26.598 0 006.555 7.452 31.592 31.592 0 0017.491 6.715c7.011.465 13.69-1.76 19.318-5.894a32.632 32.632 0 004.26-3.732 41.494 41.494 0 003.213-7.928 40.84 40.84 0 00.914-3.804A21.511 21.511 0 0176.5 58.19z" fill="#51069D" fill-rule="nonzero"/><path d="M85.55 37.938a41.414 41.414 0 00-5.35-16.982c-2.99-3.655-6.945-6.619-11.46-8.05-4.516-1.433-9.72-1.33-14.032.73-4.313 2.06-7.562 6.034-9.729 10.208-2.372 4.568-4.346 10.04-3.655 15.247.688 5.057 3.346 10.53 6.646 14.384 6.788 7.895 19.527 9.799 28.498 4.715a21.511 21.511 0 008.516-8.682c.727-3.811.917-7.706.565-11.57z" fill="#672CBC" fill-rule="nonzero"/><path d="M25.887 64.646c-.21-1.073-.399-2.153-.598-3.233.2 1.08.389 2.16.598 3.233z"/><path d="M24.664 47.62a10.21 10.21 0 00-4.196-3.322 15.49 15.49 0 014.196 3.323zm51.602 20.754a.216.216 0 00-.097-.136c-.145.207-.308.4-.488.578a11.4 11.4 0 01-1.569 1.695.595.595 0 01.373.9c-1.047 1.455-2.326 2.2-3.915 3.007-1.588.808-3.113 1.711-4.741 2.422-3.18 1.39-6.795 1.851-10.18 2.472-6.138 1.124-12.77-.03-18.046-3.409-5.217-3.342-8.443-8.283-10.586-14.001-1.937-5.17-3.403-11.979-8.64-14.916-2.63-1.482-6.552-1.522-9.469-.97a17.52 17.52 0 00-4.672 1.498l-.232.123a9.397 9.397 0 00-.562.818C.12 53.93 3.26 61.822 5.05 64.533c2.463 3.725 17.86 27.997 54.615 18.002 4.553-1.302 7.975-4.824 9.872-7.19l.432-.212c2.253-1.137 6.978-3.602 6.297-6.759zm-50.977-6.96c.2 1.079.389 2.159.598 3.232-.21-1.073-.399-2.153-.598-3.233z" fill="#A990FC" fill-rule="nonzero"/><path fill="#A990FC" fill-rule="nonzero" d="M19.873 48.362l-.226-.23.226.23.23.229zm5.047 11.114c.087.429.17.857.253 1.29-.087-.43-.17-.858-.253-1.29z"/><path d="M74.112 70.51c-.405.366-.82.718-1.219 1.06-.54.473-1.12.898-1.734 1.27-.23.148-.469.283-.715.402-.113.083-.226.166-.332.242-8.593 3.49-25.435 5.745-34.556-4.366-6.29-6.977-6.831-16.168-10.885-21.497a15.49 15.49 0 00-4.197-3.323c-2.422-1.037-5.648-1.33-10.157-.588-2.99.84-5.01 2.236-6.313 3.924l.232-.123a17.52 17.52 0 014.682-1.485c2.917-.552 6.838-.512 9.47.97 5.226 2.937 6.692 9.745 8.639 14.916 2.143 5.718 5.37 10.659 10.586 14.001 5.276 3.38 11.908 4.532 18.045 3.41 3.386-.622 7.001-1.084 10.181-2.473 1.628-.71 3.163-1.611 4.741-2.422 1.579-.81 2.868-1.552 3.915-3.007a.595.595 0 00-.383-.91zm2.881-35.43a30.1 30.1 0 00-7.702-14.935c-1.355-1.408-3.9-3.8-6.11-3.252-1.555.385-2.07 2.232-1.698 3.631.399 1.485 1.578 2.602 2.509 3.761A28.01 28.01 0 0166.65 28.3a42.87 42.87 0 011.754 3.576l.2.541c.963 2.688 1.624 5.831 3.222 8.23.95 1.42 3.017 2.552 4.52 1.187 1.737-1.555 1.03-4.828.647-6.752zm.831 10.59c-1.432-.638-3.067-.163-4.143.907-1.841 1.828-2.692 7.054.299 7.623a3.216 3.216 0 002.658-.087c1.661-.78 2.478-2.711 2.797-4.412.31-1.572-.023-3.32-1.611-4.03z" fill="#FFF" fill-rule="nonzero"/><ellipse fill="#F93DD1" fill-rule="nonzero" transform="rotate(-21.68 12.294 56.984)" cx="12.294" cy="56.984" rx="5.934" ry="7.21"/><ellipse fill="#FFF" fill-rule="nonzero" transform="rotate(-21.68 12.294 56.984)" cx="12.294" cy="56.984" rx="3.392" ry="4.12"/><path d="M56.585 117.756a7.141 7.141 0 002.094-.23 7.602 7.602 0 002.608-1.365c-1.14-8.426-2.618-16.74-7.386-15.344-2.755.777-3.719 2.499-3.655 4.841.84 2.12 1.588 4.273 2.784 6.25 1.196 1.977 2.459 3.848 3.555 5.848z" fill="#A990FC" fill-rule="nonzero"/><path d="M56.585 117.756a24.694 24.694 0 011.466 3.137 7.06 7.06 0 01.156 4.532c-.512 1.993-.02 3.306 1.8 4.303.554.3 1.121.573 1.702.817a3.356 3.356 0 002.3-.974c2.657-2.551-1.57-5.2-1.57-5.2-.421-2.505-.767-5.366-1.152-8.21a7.602 7.602 0 01-2.608 1.366 7.137 7.137 0 01-2.094.229z" fill="#51069D" fill-rule="nonzero"/><path d="M53.954 117.324c.857.246 1.74.391 2.631.432-1.093-1.994-2.392-3.9-3.568-5.848-1.176-1.947-1.944-4.13-2.785-6.25.07 3.06 1.881 7.184 3.722 11.666z" fill="#672CBC" fill-rule="nonzero"/><path d="M58.207 125.425a7.06 7.06 0 00-.156-4.532 24.694 24.694 0 00-1.466-3.137 11.397 11.397 0 01-2.631-.432c1.067 2.496 2 5.047 2.797 7.642a2.957 2.957 0 00-.495 2.356c.725 1.302 3.164 3.3 5.453 3.23a18.637 18.637 0 01-1.701-.818c-1.821-1.003-2.313-2.329-1.801-4.31zm31.037-56.881a1.887 1.887 0 00-1.15-2.4l-11.828-4.166a1.884 1.884 0 00-2.396 1.15l-2.801 7.944 15.374 5.416 2.801-7.944z" fill="#350072" fill-rule="nonzero"/><path fill="#A990FC" fill-rule="nonzero" d="M68.998 76.948l2.07-5.876 15.375 5.417-2.07 5.876z"/><path d="M82.535 87.576l1.838-5.21-15.374-5.416-1.838 5.21a1.884 1.884 0 001.15 2.396l11.829 4.16a1.884 1.884 0 002.395-1.14z" fill="#F93DD1" fill-rule="nonzero"/><path d="M83.144 68.746l.498-1.415a.439.439 0 00-.27-.562l-.903-.332-.645 1.83 1.32.48zm-1.642-2.625l-.904-.332a.442.442 0 00-.561.27l-.499 1.411 1.33.466.634-1.815z" stroke="#FFF" stroke-width=".66" fill="#A990FC" fill-rule="nonzero"/><path stroke="#FFF" stroke-width=".75" fill="#A990FC" fill-rule="nonzero" d="M80.858 67.94l.644-1.831.969.341-.645 1.83zm-1.225 3.467l.645-1.83.968.341-.645 1.83z"/><path d="M80.605 71.75l.9.316a.442.442 0 00.565-.27l.499-1.412-1.33-.465-.634 1.831zm-1.645-2.638l-.498 1.415a.442.442 0 00.286.578l.903.333.645-1.831-1.336-.495zm4.184-.366l-1.32-.465-.966-.342-1.32-.465-.578 1.638 1.32.465.97.342 1.319.465z" stroke="#FFF" stroke-width=".66" fill="#A990FC" fill-rule="nonzero"/><path d="M81.153 85.725a1.884 1.884 0 001.35-2.29l-4.42-17.17-4.253 21.338 7.323-1.878zM63.021 65.67a1.887 1.887 0 00-1.349 2.292l2.738 10.596 2.775-13.955-4.164 1.067z" fill="#FFF" fill-rule="nonzero"/><path d="M78.083 66.264l-.615-2.379a1.884 1.884 0 00-2.289-1.352l-7.974 2.063-2.775 13.956 2.326 8.94a1.884 1.884 0 002.29 1.35l4.82-1.246 4.217-21.332z" fill="#F93DD1" fill-rule="nonzero"/><path d="M72.508 67.45l-.376-1.452a.439.439 0 00-.538-.315l-.927.239.485 1.877 1.356-.349zm-2.835-1.269l-.927.24a.445.445 0 00-.332.538l.376 1.448 1.355-.332-.472-1.894z" stroke="#FFF" stroke-width=".66" fill="#A990FC" fill-rule="nonzero"/><path stroke="#FFF" stroke-width=".66" fill="#A990FC" fill-rule="nonzero" d="M69.67 66.184l.995-.257.485 1.879-.994.256z"/><path stroke="#FFF" stroke-width=".75" fill="#A990FC" fill-rule="nonzero" d="M70.71 69.871l.995-.257.486 1.883-.996.256z"/><path d="M72.072 71.361l.927-.239a.445.445 0 00.333-.538l-.376-1.449-1.352.349.468 1.877zm-2.834-1.252l.376 1.448a.442.442 0 00.534.333l.928-.24-.486-1.88-1.352.339zm3.27-2.655l-1.356.349-.994.256-1.355.348.435 1.685 1.352-.352.997-.256 1.353-.349z" stroke="#FFF" stroke-width=".66" fill="#A990FC" fill-rule="nonzero"/><path d="M73.195 90.41c-.332-1.15-.086-2.482.083-3.655a36.8 36.8 0 01.705-3.595c.276-1.14.608-2.263.997-3.372.18-.528.367-1.054.565-1.579a5.49 5.49 0 00.465-1.309.754.754 0 00-.426-.814 35.553 35.553 0 00-2.854 7.695c-.528 2.223-1.329 5.227.14 7.25a4.15 4.15 0 002.678 1.662c-1.09-.386-1.99-1.063-2.353-2.283zm5.157-15.317c-.631.664-.854 1.86-1.096 2.711-.333 1.203-.602 2.432-.858 3.655l-.15.681v1.33s3.314-9.085 2.104-8.377z" fill="#350072" fill-rule="nonzero"/><path d="M82.007 75.953a.203.203 0 00-.249-.14 1.415 1.415 0 00-.784.665c1.329-1.16-1.897 8.204-1.897 8.204l.12-.81a61.08 61.08 0 00.494-5.22c.04-.69.069-1.377.087-2.064 0-.435.083-.98-.123-1.389-.29-.562-.9-.542-1.303-.12 1.21-.704-2.103 8.397-2.103 8.397v-1.33c.063-.664.12-1.345.16-2.02.02-.332.043-.664.066-.996.1-.515.19-1.03.256-1.545.026-.196.06-.412.08-.628.05-.17.075-.345.073-.522a.748.748 0 00-.589-.79.478.478 0 00-.355.086h-.057a.146.146 0 00-.103.103.153.153 0 00-.122.073l-.087.176c.31.144.484.478.425.814a5.49 5.49 0 01-.465 1.309 45.16 45.16 0 00-1.562 4.95 36.017 36.017 0 00-.704 3.596c-.17 1.156-.425 2.489-.083 3.655.362 1.22 1.263 1.897 2.326 2.283.906.15 1.835-.01 2.638-.456a4.522 4.522 0 001.994-2.412c.535-1.366.95-2.804 1.349-4.216.914-3.13 1.412-6.46.518-9.653z" fill="#51069D" fill-rule="nonzero"/><path d="M80.974 76.488a2.778 2.778 0 00-.213.482 28.14 28.14 0 00-.664 2.834 90.701 90.701 0 00-.748 3.715l-.14.362-.12.81s3.224-9.362 1.885-8.203z" fill="#350072" fill-rule="nonzero"/></g></svg>